# xmcd CD database file
#
# Track frame offsets:
#	150
#	19605
#	22678
#	42455
#	61348
#	87656
#	117927
#	140414
#	167415
#	177028
#	205572
#
# Disc length: 3683 seconds
#
# Revision: 0
# Processed by: cddbd v1.5PL3 Copyright (c) Steve Scherf et al.
# Submitted via: CDex 1.51
#
DISCID=830e610b
DTITLE=Djamra - Transplantation
DYEAR=2003
DGENRE=Jazz
TTITLE0=Time Flies Like An Arrow (2 hones version)
TTITLE1=Channeling
TTITLE2=Assassin In Sin
TTITLE3=Neo Skin
TTITLE4=Mood
TTITLE5=Nest
TTITLE6=Time Flies Like An Arrow (3 hones version)
TTITLE7=Hz
TTITLE8=Pliable Clockwork
TTITLE9=The Cave
TTITLE10=To India
EXTD=YEAR: 2003
EXTT0=
EXTT1=
EXTT2=
EXTT3=
EXTT4=
EXTT5=
EXTT6=
EXTT7=
EXTT8=
EXTT9=
EXTT10=
PLAYORDER=
